<svg version="1.1" xmlns="http://www.w3.org/2000/svg" width="220px" height="220px" viewBox="0 0 220 220" preserveAspectRatio="xMinYMin meet" xmlns:xlink="http://www.w3.org/1999/xlink" xmlns:svgjs="http://svgjs.com/svgjs"><rect width="100%" height="100%" fill="#d7d7db" cx="0" cy="0"/><path d="M4,4l4,0 0,4 -4,0 0,-4z M8,4l4,0 0,4 -4,0 0,-4z M12,4l4,0 0,4 -4,0 0,-4z M16,4l4,0 0,4 -4,0 0,-4z M20,4l4,0 0,4 -4,0 0,-4z M24,4l4,0 0,4 -4,0 0,-4z M28,4l4,0 0,4 -4,0 0,-4z M36,4l4,0 0,4 -4,0 0,-4z M40,4l4,0 0,4 -4,0 0,-4z M52,4l4,0 0,4 -4,0 0,-4z M100,4l4,0 0,4 -4,0 0,-4z M104,4l4,0 0,4 -4,0 0,-4z M116,4l4,0 0,4 -4,0 0,-4z M124,4l4,0 0,4 -4,0 0,-4z M132,4l4,0 0,4 -4,0 0,-4z M136,4l4,0 0,4 -4,0 0,-4z M140,4l4,0 0,4 -4,0 0,-4z M152,4l4,0 0,4 -4,0 0,-4z M156,4l4,0 0,4 -4,0 0,-4z M164,4l4,0 0,4 -4,0 0,-4z M172,4l4,0 0,4 -4,0 0,-4z M188,4l4,0 0,4 -4,0 0,-4z M192,4l4,0 0,4 -4,0 0,-4z M196,4l4,0 0,4 -4,0 0,-4z M200,4l4,0 0,4 -4,0 0,-4z M204,4l4,0 0,4 -4,0 0,-4z M208,4l4,0 0,4 -4,0 0,-4z M212,4l4,0 0,4 -4,0 0,-4z M4,8l4,0 0,4 -4,0 0,-4z M28,8l4,0 0,4 -4,0 0,-4z M40,8l4,0 0,4 -4,0 0,-4z M44,8l4,0 0,4 -4,0 0,-4z M52,8l4,0 0,4 -4,0 0,-4z M56,8l4,0 0,4 -4,0 0,-4z M60,8l4,0 0,4 -4,0 0,-4z M64,8l4,0 0,4 -4,0 0,-4z M68,8l4,0 0,4 -4,0 0,-4z M96,8l4,0 0,4 -4,0 0,-4z M104,8l4,0 0,4 -4,0 0,-4z M108,8l4,0 0,4 -4,0 0,-4z M116,8l4,0 0,4 -4,0 0,-4z M120,8l4,0 0,4 -4,0 0,-4z M124,8l4,0 0,4 -4,0 0,-4z M128,8l4,0 0,4 -4,0 0,-4z M132,8l4,0 0,4 -4,0 0,-4z M148,8l4,0 0,4 -4,0 0,-4z M152,8l4,0 0,4 -4,0 0,-4z M156,8l4,0 0,4 -4,0 0,-4z M160,8l4,0 0,4 -4,0 0,-4z M164,8l4,0 0,4 -4,0 0,-4z M168,8l4,0 0,4 -4,0 0,-4z M172,8l4,0 0,4 -4,0 0,-4z M176,8l4,0 0,4 -4,0 0,-4z M188,8l4,0 0,4 -4,0 0,-4z M212,8l4,0 0,4 -4,0 0,-4z M4,12l4,0 0,4 -4,0 0,-4z M12,12l4,0 0,4 -4,0 0,-4z M16,12l4,0 0,4 -4,0 0,-4z M20,12l4,0 0,4 -4,0 0,-4z M28,12l4,0 0,4 -4,0 0,-4z M36,12l4,0 0,4 -4,0 0,-4z M40,12l4,0 0,4 -4,0 0,-4z M44,12l4,0 0,4 -4,0 0,-4z M48,12l4,0 0,4 -4,0 0,-4z M52,12l4,0 0,4 -4,0 0,-4z M60,12l4,0 0,4 -4,0 0,-4z M68,12l4,0 0,4 -4,0 0,-4z M104,12l4,0 0,4 -4,0 0,-4z M108,12l4,0 0,4 -4,0 0,-4z M112,12l4,0 0,4 -4,0 0,-4z M120,12l4,0 0,4 -4,0 0,-4z M124,12l4,0 0,4 -4,0 0,-4z M132,12l4,0 0,4 -4,0 0,-4z M144,12l4,0 0,4 -4,0 0,-4z M168,12l4,0 0,4 -4,0 0,-4z M176,12l4,0 0,4 -4,0 0,-4z M188,12l4,0 0,4 -4,0 0,-4z M196,12l4,0 0,4 -4,0 0,-4z M200,12l4,0 0,4 -4,0 0,-4z M204,12l4,0 0,4 -4,0 0,-4z M212,12l4,0 0,4 -4,0 0,-4z M4,16l4,0 0,4 -4,0 0,-4z M12,16l4,0 0,4 -4,0 0,-4z M16,16l4,0 0,4 -4,0 0,-4z M20,16l4,0 0,4 -4,0 0,-4z M28,16l4,0 0,4 -4,0 0,-4z M36,16l4,0 0,4 -4,0 0,-4z M44,16l4,0 0,4 -4,0 0,-4z M48,16l4,0 0,4 -4,0 0,-4z M52,16l4,0 0,4 -4,0 0,-4z M60,16l4,0 0,4 -4,0 0,-4z M64,16l4,0 0,4 -4,0 0,-4z M72,16l4,0 0,4 -4,0 0,-4z M84,16l4,0 0,4 -4,0 0,-4z M92,16l4,0 0,4 -4,0 0,-4z M108,16l4,0 0,4 -4,0 0,-4z M116,16l4,0 0,4 -4,0 0,-4z M156,16l4,0 0,4 -4,0 0,-4z M160,16l4,0 0,4 -4,0 0,-4z M172,16l4,0 0,4 -4,0 0,-4z M180,16l4,0 0,4 -4,0 0,-4z M188,16l4,0 0,4 -4,0 0,-4z M196,16l4,0 0,4 -4,0 0,-4z M200,16l4,0 0,4 -4,0 0,-4z M204,16l4,0 0,4 -4,0 0,-4z M212,16l4,0 0,4 -4,0 0,-4z M4,20l4,0 0,4 -4,0 0,-4z M12,20l4,0 0,4 -4,0 0,-4z M16,20l4,0 0,4 -4,0 0,-4z M20,20l4,0 0,4 -4,0 0,-4z M28,20l4,0 0,4 -4,0 0,-4z M40,20l4,0 0,4 -4,0 0,-4z M52,20l4,0 0,4 -4,0 0,-4z M60,20l4,0 0,4 -4,0 0,-4z M84,20l4,0 0,4 -4,0 0,-4z M96,20l4,0 0,4 -4,0 0,-4z M100,20l4,0 0,4 -4,0 0,-4z M104,20l4,0 0,4 -4,0 0,-4z M108,20l4,0 0,4 -4,0 0,-4z M112,20l4,0 0,4 -4,0 0,-4z M116,20l4,0 0,4 -4,0 0,-4z M124,20l4,0 0,4 -4,0 0,-4z M132,20l4,0 0,4 -4,0 0,-4z M136,20l4,0 0,4 -4,0 0,-4z M144,20l4,0 0,4 -4,0 0,-4z M156,20l4,0 0,4 -4,0 0,-4z M164,20l4,0 0,4 -4,0 0,-4z M168,20l4,0 0,4 -4,0 0,-4z M172,20l4,0 0,4 -4,0 0,-4z M188,20l4,0 0,4 -4,0 0,-4z M196,20l4,0 0,4 -4,0 0,-4z M200,20l4,0 0,4 -4,0 0,-4z M204,20l4,0 0,4 -4,0 0,-4z M212,20l4,0 0,4 -4,0 0,-4z M4,24l4,0 0,4 -4,0 0,-4z M28,24l4,0 0,4 -4,0 0,-4z M36,24l4,0 0,4 -4,0 0,-4z M48,24l4,0 0,4 -4,0 0,-4z M68,24l4,0 0,4 -4,0 0,-4z M72,24l4,0 0,4 -4,0 0,-4z M80,24l4,0 0,4 -4,0 0,-4z M92,24l4,0 0,4 -4,0 0,-4z M100,24l4,0 0,4 -4,0 0,-4z M116,24l4,0 0,4 -4,0 0,-4z M136,24l4,0 0,4 -4,0 0,-4z M140,24l4,0 0,4 -4,0 0,-4z M152,24l4,0 0,4 -4,0 0,-4z M160,24l4,0 0,4 -4,0 0,-4z M172,24l4,0 0,4 -4,0 0,-4z M188,24l4,0 0,4 -4,0 0,-4z M212,24l4,0 0,4 -4,0 0,-4z M4,28l4,0 0,4 -4,0 0,-4z M8,28l4,0 0,4 -4,0 0,-4z M12,28l4,0 0,4 -4,0 0,-4z M16,28l4,0 0,4 -4,0 0,-4z M20,28l4,0 0,4 -4,0 0,-4z M24,28l4,0 0,4 -4,0 0,-4z M28,28l4,0 0,4 -4,0 0,-4z M36,28l4,0 0,4 -4,0 0,-4z M44,28l4,0 0,4 -4,0 0,-4z M52,28l4,0 0,4 -4,0 0,-4z M60,28l4,0 0,4 -4,0 0,-4z M68,28l4,0 0,4 -4,0 0,-4z M76,28l4,0 0,4 -4,0 0,-4z M84,28l4,0 0,4 -4,0 0,-4z M92,28l4,0 0,4 -4,0 0,-4z M100,28l4,0 0,4 -4,0 0,-4z M108,28l4,0 0,4 -4,0 0,-4z M116,28l4,0 0,4 -4,0 0,-4z M124,28l4,0 0,4 -4,0 0,-4z M132,28l4,0 0,4 -4,0 0,-4z M140,28l4,0 0,4 -4,0 0,-4z M148,28l4,0 0,4 -4,0 0,-4z M156,28l4,0 0,4 -4,0 0,-4z M164,28l4,0 0,4 -4,0 0,-4z M172,28l4,0 0,4 -4,0 0,-4z M180,28l4,0 0,4 -4,0 0,-4z M188,28l4,0 0,4 -4,0 0,-4z M192,28l4,0 0,4 -4,0 0,-4z M196,28l4,0 0,4 -4,0 0,-4z M200,28l4,0 0,4 -4,0 0,-4z M204,28l4,0 0,4 -4,0 0,-4z M208,28l4,0 0,4 -4,0 0,-4z M212,28l4,0 0,4 -4,0 0,-4z M36,32l4,0 0,4 -4,0 0,-4z M44,32l4,0 0,4 -4,0 0,-4z M52,32l4,0 0,4 -4,0 0,-4z M56,32l4,0 0,4 -4,0 0,-4z M68,32l4,0 0,4 -4,0 0,-4z M76,32l4,0 0,4 -4,0 0,-4z M84,32l4,0 0,4 -4,0 0,-4z M92,32l4,0 0,4 -4,0 0,-4z M96,32l4,0 0,4 -4,0 0,-4z M100,32l4,0 0,4 -4,0 0,-4z M116,32l4,0 0,4 -4,0 0,-4z M120,32l4,0 0,4 -4,0 0,-4z M132,32l4,0 0,4 -4,0 0,-4z M140,32l4,0 0,4 -4,0 0,-4z M144,32l4,0 0,4 -4,0 0,-4z M148,32l4,0 0,4 -4,0 0,-4z M152,32l4,0 0,4 -4,0 0,-4z M156,32l4,0 0,4 -4,0 0,-4z M160,32l4,0 0,4 -4,0 0,-4z M168,32l4,0 0,4 -4,0 0,-4z M172,32l4,0 0,4 -4,0 0,-4z M176,32l4,0 0,4 -4,0 0,-4z M8,36l4,0 0,4 -4,0 0,-4z M16,36l4,0 0,4 -4,0 0,-4z M24,36l4,0 0,4 -4,0 0,-4z M28,36l4,0 0,4 -4,0 0,-4z M32,36l4,0 0,4 -4,0 0,-4z M36,36l4,0 0,4 -4,0 0,-4z M60,36l4,0 0,4 -4,0 0,-4z M64,36l4,0 0,4 -4,0 0,-4z M88,36l4,0 0,4 -4,0 0,-4z M92,36l4,0 0,4 -4,0 0,-4z M96,36l4,0 0,4 -4,0 0,-4z M100,36l4,0 0,4 -4,0 0,-4z M104,36l4,0 0,4 -4,0 0,-4z M108,36l4,0 0,4 -4,0 0,-4z M112,36l4,0 0,4 -4,0 0,-4z M116,36l4,0 0,4 -4,0 0,-4z M120,36l4,0 0,4 -4,0 0,-4z M128,36l4,0 0,4 -4,0 0,-4z M136,36l4,0 0,4 -4,0 0,-4z M140,36l4,0 0,4 -4,0 0,-4z M144,36l4,0 0,4 -4,0 0,-4z M148,36l4,0 0,4 -4,0 0,-4z M152,36l4,0 0,4 -4,0 0,-4z M156,36l4,0 0,4 -4,0 0,-4z M160,36l4,0 0,4 -4,0 0,-4z M164,36l4,0 0,4 -4,0 0,-4z M168,36l4,0 0,4 -4,0 0,-4z M172,36l4,0 0,4 -4,0 0,-4z M176,36l4,0 0,4 -4,0 0,-4z M180,36l4,0 0,4 -4,0 0,-4z M184,36l4,0 0,4 -4,0 0,-4z M188,36l4,0 0,4 -4,0 0,-4z M192,36l4,0 0,4 -4,0 0,-4z M200,36l4,0 0,4 -4,0 0,-4z M204,36l4,0 0,4 -4,0 0,-4z M212,36l4,0 0,4 -4,0 0,-4z M4,40l4,0 0,4 -4,0 0,-4z M8,40l4,0 0,4 -4,0 0,-4z M12,40l4,0 0,4 -4,0 0,-4z M36,40l4,0 0,4 -4,0 0,-4z M40,40l4,0 0,4 -4,0 0,-4z M44,40l4,0 0,4 -4,0 0,-4z M48,40l4,0 0,4 -4,0 0,-4z M52,40l4,0 0,4 -4,0 0,-4z M56,40l4,0 0,4 -4,0 0,-4z M72,40l4,0 0,4 -4,0 0,-4z M84,40l4,0 0,4 -4,0 0,-4z M92,40l4,0 0,4 -4,0 0,-4z M100,40l4,0 0,4 -4,0 0,-4z M108,40l4,0 0,4 -4,0 0,-4z M112,40l4,0 0,4 -4,0 0,-4z M148,40l4,0 0,4 -4,0 0,-4z M164,40l4,0 0,4 -4,0 0,-4z M176,40l4,0 0,4 -4,0 0,-4z M192,40l4,0 0,4 -4,0 0,-4z M204,40l4,0 0,4 -4,0 0,-4z M212,40l4,0 0,4 -4,0 0,-4z M4,44l4,0 0,4 -4,0 0,-4z M8,44l4,0 0,4 -4,0 0,-4z M16,44l4,0 0,4 -4,0 0,-4z M24,44l4,0 0,4 -4,0 0,-4z M28,44l4,0 0,4 -4,0 0,-4z M32,44l4,0 0,4 -4,0 0,-4z M40,44l4,0 0,4 -4,0 0,-4z M44,44l4,0 0,4 -4,0 0,-4z M52,44l4,0 0,4 -4,0 0,-4z M56,44l4,0 0,4 -4,0 0,-4z M60,44l4,0 0,4 -4,0 0,-4z M68,44l4,0 0,4 -4,0 0,-4z M72,44l4,0 0,4 -4,0 0,-4z M76,44l4,0 0,4 -4,0 0,-4z M80,44l4,0 0,4 -4,0 0,-4z M84,44l4,0 0,4 -4,0 0,-4z M88,44l4,0 0,4 -4,0 0,-4z M92,44l4,0 0,4 -4,0 0,-4z M100,44l4,0 0,4 -4,0 0,-4z M104,44l4,0 0,4 -4,0 0,-4z M116,44l4,0 0,4 -4,0 0,-4z M132,44l4,0 0,4 -4,0 0,-4z M144,44l4,0 0,4 -4,0 0,-4z M152,44l4,0 0,4 -4,0 0,-4z M160,44l4,0 0,4 -4,0 0,-4z M164,44l4,0 0,4 -4,0 0,-4z M168,44l4,0 0,4 -4,0 0,-4z M184,44l4,0 0,4 -4,0 0,-4z M188,44l4,0 0,4 -4,0 0,-4z M192,44l4,0 0,4 -4,0 0,-4z M196,44l4,0 0,4 -4,0 0,-4z M200,44l4,0 0,4 -4,0 0,-4z M208,44l4,0 0,4 -4,0 0,-4z M4,48l4,0 0,4 -4,0 0,-4z M8,48l4,0 0,4 -4,0 0,-4z M16,48l4,0 0,4 -4,0 0,-4z M20,48l4,0 0,4 -4,0 0,-4z M32,48l4,0 0,4 -4,0 0,-4z M36,48l4,0 0,4 -4,0 0,-4z M40,48l4,0 0,4 -4,0 0,-4z M48,48l4,0 0,4 -4,0 0,-4z M52,48l4,0 0,4 -4,0 0,-4z M60,48l4,0 0,4 -4,0 0,-4z M92,48l4,0 0,4 -4,0 0,-4z M100,48l4,0 0,4 -4,0 0,-4z M104,48l4,0 0,4 -4,0 0,-4z M120,48l4,0 0,4 -4,0 0,-4z M128,48l4,0 0,4 -4,0 0,-4z M140,48l4,0 0,4 -4,0 0,-4z M148,48l4,0 0,4 -4,0 0,-4z M156,48l4,0 0,4 -4,0 0,-4z M160,48l4,0 0,4 -4,0 0,-4z M168,48l4,0 0,4 -4,0 0,-4z M176,48l4,0 0,4 -4,0 0,-4z M180,48l4,0 0,4 -4,0 0,-4z M188,48l4,0 0,4 -4,0 0,-4z M196,48l4,0 0,4 -4,0 0,-4z M204,48l4,0 0,4 -4,0 0,-4z M208,48l4,0 0,4 -4,0 0,-4z M212,48l4,0 0,4 -4,0 0,-4z M8,52l4,0 0,4 -4,0 0,-4z M20,52l4,0 0,4 -4,0 0,-4z M28,52l4,0 0,4 -4,0 0,-4z M32,52l4,0 0,4 -4,0 0,-4z M40,52l4,0 0,4 -4,0 0,-4z M48,52l4,0 0,4 -4,0 0,-4z M96,52l4,0 0,4 -4,0 0,-4z M104,52l4,0 0,4 -4,0 0,-4z M116,52l4,0 0,4 -4,0 0,-4z M120,52l4,0 0,4 -4,0 0,-4z M124,52l4,0 0,4 -4,0 0,-4z M128,52l4,0 0,4 -4,0 0,-4z M132,52l4,0 0,4 -4,0 0,-4z M136,52l4,0 0,4 -4,0 0,-4z M140,52l4,0 0,4 -4,0 0,-4z M148,52l4,0 0,4 -4,0 0,-4z M152,52l4,0 0,4 -4,0 0,-4z M156,52l4,0 0,4 -4,0 0,-4z M160,52l4,0 0,4 -4,0 0,-4z M164,52l4,0 0,4 -4,0 0,-4z M168,52l4,0 0,4 -4,0 0,-4z M172,52l4,0 0,4 -4,0 0,-4z M180,52l4,0 0,4 -4,0 0,-4z M196,52l4,0 0,4 -4,0 0,-4z M212,52l4,0 0,4 -4,0 0,-4z M4,56l4,0 0,4 -4,0 0,-4z M12,56l4,0 0,4 -4,0 0,-4z M16,56l4,0 0,4 -4,0 0,-4z M20,56l4,0 0,4 -4,0 0,-4z M32,56l4,0 0,4 -4,0 0,-4z M44,56l4,0 0,4 -4,0 0,-4z M52,56l4,0 0,4 -4,0 0,-4z M56,56l4,0 0,4 -4,0 0,-4z M84,56l4,0 0,4 -4,0 0,-4z M88,56l4,0 0,4 -4,0 0,-4z M96,56l4,0 0,4 -4,0 0,-4z M100,56l4,0 0,4 -4,0 0,-4z M112,56l4,0 0,4 -4,0 0,-4z M140,56l4,0 0,4 -4,0 0,-4z M148,56l4,0 0,4 -4,0 0,-4z M152,56l4,0 0,4 -4,0 0,-4z M160,56l4,0 0,4 -4,0 0,-4z M164,56l4,0 0,4 -4,0 0,-4z M176,56l4,0 0,4 -4,0 0,-4z M184,56l4,0 0,4 -4,0 0,-4z M188,56l4,0 0,4 -4,0 0,-4z M196,56l4,0 0,4 -4,0 0,-4z M200,56l4,0 0,4 -4,0 0,-4z M204,56l4,0 0,4 -4,0 0,-4z M4,60l4,0 0,4 -4,0 0,-4z M8,60l4,0 0,4 -4,0 0,-4z M20,60l4,0 0,4 -4,0 0,-4z M28,60l4,0 0,4 -4,0 0,-4z M32,60l4,0 0,4 -4,0 0,-4z M36,60l4,0 0,4 -4,0 0,-4z M44,60l4,0 0,4 -4,0 0,-4z M48,60l4,0 0,4 -4,0 0,-4z M52,60l4,0 0,4 -4,0 0,-4z M56,60l4,0 0,4 -4,0 0,-4z M60,60l4,0 0,4 -4,0 0,-4z M64,60l4,0 0,4 -4,0 0,-4z M84,60l4,0 0,4 -4,0 0,-4z M92,60l4,0 0,4 -4,0 0,-4z M100,60l4,0 0,4 -4,0 0,-4z M104,60l4,0 0,4 -4,0 0,-4z M108,60l4,0 0,4 -4,0 0,-4z M112,60l4,0 0,4 -4,0 0,-4z M116,60l4,0 0,4 -4,0 0,-4z M120,60l4,0 0,4 -4,0 0,-4z M128,60l4,0 0,4 -4,0 0,-4z M152,60l4,0 0,4 -4,0 0,-4z M156,60l4,0 0,4 -4,0 0,-4z M160,60l4,0 0,4 -4,0 0,-4z M164,60l4,0 0,4 -4,0 0,-4z M168,60l4,0 0,4 -4,0 0,-4z M180,60l4,0 0,4 -4,0 0,-4z M192,60l4,0 0,4 -4,0 0,-4z M196,60l4,0 0,4 -4,0 0,-4z M204,60l4,0 0,4 -4,0 0,-4z M208,60l4,0 0,4 -4,0 0,-4z M212,60l4,0 0,4 -4,0 0,-4z M8,64l4,0 0,4 -4,0 0,-4z M12,64l4,0 0,4 -4,0 0,-4z M16,64l4,0 0,4 -4,0 0,-4z M20,64l4,0 0,4 -4,0 0,-4z M24,64l4,0 0,4 -4,0 0,-4z M32,64l4,0 0,4 -4,0 0,-4z M44,64l4,0 0,4 -4,0 0,-4z M52,64l4,0 0,4 -4,0 0,-4z M56,64l4,0 0,4 -4,0 0,-4z M60,64l4,0 0,4 -4,0 0,-4z M64,64l4,0 0,4 -4,0 0,-4z M68,64l4,0 0,4 -4,0 0,-4z M80,64l4,0 0,4 -4,0 0,-4z M108,64l4,0 0,4 -4,0 0,-4z M116,64l4,0 0,4 -4,0 0,-4z M124,64l4,0 0,4 -4,0 0,-4z M132,64l4,0 0,4 -4,0 0,-4z M136,64l4,0 0,4 -4,0 0,-4z M148,64l4,0 0,4 -4,0 0,-4z M152,64l4,0 0,4 -4,0 0,-4z M160,64l4,0 0,4 -4,0 0,-4z M164,64l4,0 0,4 -4,0 0,-4z M172,64l4,0 0,4 -4,0 0,-4z M176,64l4,0 0,4 -4,0 0,-4z M192,64l4,0 0,4 -4,0 0,-4z M196,64l4,0 0,4 -4,0 0,-4z M208,64l4,0 0,4 -4,0 0,-4z M4,68l4,0 0,4 -4,0 0,-4z M8,68l4,0 0,4 -4,0 0,-4z M12,68l4,0 0,4 -4,0 0,-4z M16,68l4,0 0,4 -4,0 0,-4z M28,68l4,0 0,4 -4,0 0,-4z M32,68l4,0 0,4 -4,0 0,-4z M40,68l4,0 0,4 -4,0 0,-4z M48,68l4,0 0,4 -4,0 0,-4z M64,68l4,0 0,4 -4,0 0,-4z M76,68l4,0 0,4 -4,0 0,-4z M80,68l4,0 0,4 -4,0 0,-4z M84,68l4,0 0,4 -4,0 0,-4z M88,68l4,0 0,4 -4,0 0,-4z M92,68l4,0 0,4 -4,0 0,-4z M96,68l4,0 0,4 -4,0 0,-4z M108,68l4,0 0,4 -4,0 0,-4z M116,68l4,0 0,4 -4,0 0,-4z M120,68l4,0 0,4 -4,0 0,-4z M132,68l4,0 0,4 -4,0 0,-4z M136,68l4,0 0,4 -4,0 0,-4z M140,68l4,0 0,4 -4,0 0,-4z M144,68l4,0 0,4 -4,0 0,-4z M148,68l4,0 0,4 -4,0 0,-4z M156,68l4,0 0,4 -4,0 0,-4z M160,68l4,0 0,4 -4,0 0,-4z M168,68l4,0 0,4 -4,0 0,-4z M172,68l4,0 0,4 -4,0 0,-4z M176,68l4,0 0,4 -4,0 0,-4z M192,68l4,0 0,4 -4,0 0,-4z M196,68l4,0 0,4 -4,0 0,-4z M4,72l4,0 0,4 -4,0 0,-4z M8,72l4,0 0,4 -4,0 0,-4z M16,72l4,0 0,4 -4,0 0,-4z M36,72l4,0 0,4 -4,0 0,-4z M44,72l4,0 0,4 -4,0 0,-4z M60,72l4,0 0,4 -4,0 0,-4z M64,72l4,0 0,4 -4,0 0,-4z M68,72l4,0 0,4 -4,0 0,-4z M76,72l4,0 0,4 -4,0 0,-4z M84,72l4,0 0,4 -4,0 0,-4z M88,72l4,0 0,4 -4,0 0,-4z M96,72l4,0 0,4 -4,0 0,-4z M100,72l4,0 0,4 -4,0 0,-4z M104,72l4,0 0,4 -4,0 0,-4z M112,72l4,0 0,4 -4,0 0,-4z M120,72l4,0 0,4 -4,0 0,-4z M132,72l4,0 0,4 -4,0 0,-4z M144,72l4,0 0,4 -4,0 0,-4z M156,72l4,0 0,4 -4,0 0,-4z M164,72l4,0 0,4 -4,0 0,-4z M180,72l4,0 0,4 -4,0 0,-4z M196,72l4,0 0,4 -4,0 0,-4z M204,72l4,0 0,4 -4,0 0,-4z M208,72l4,0 0,4 -4,0 0,-4z M212,72l4,0 0,4 -4,0 0,-4z M8,76l4,0 0,4 -4,0 0,-4z M16,76l4,0 0,4 -4,0 0,-4z M20,76l4,0 0,4 -4,0 0,-4z M24,76l4,0 0,4 -4,0 0,-4z M28,76l4,0 0,4 -4,0 0,-4z M32,76l4,0 0,4 -4,0 0,-4z M40,76l4,0 0,4 -4,0 0,-4z M48,76l4,0 0,4 -4,0 0,-4z M68,76l4,0 0,4 -4,0 0,-4z M72,76l4,0 0,4 -4,0 0,-4z M92,76l4,0 0,4 -4,0 0,-4z M104,76l4,0 0,4 -4,0 0,-4z M132,76l4,0 0,4 -4,0 0,-4z M148,76l4,0 0,4 -4,0 0,-4z M164,76l4,0 0,4 -4,0 0,-4z M176,76l4,0 0,4 -4,0 0,-4z M184,76l4,0 0,4 -4,0 0,-4z M192,76l4,0 0,4 -4,0 0,-4z M204,76l4,0 0,4 -4,0 0,-4z M208,76l4,0 0,4 -4,0 0,-4z M212,76l4,0 0,4 -4,0 0,-4z M4,80l4,0 0,4 -4,0 0,-4z M8,80l4,0 0,4 -4,0 0,-4z M20,80l4,0 0,4 -4,0 0,-4z M24,80l4,0 0,4 -4,0 0,-4z M48,80l4,0 0,4 -4,0 0,-4z M64,80l4,0 0,4 -4,0 0,-4z M68,80l4,0 0,4 -4,0 0,-4z M72,80l4,0 0,4 -4,0 0,-4z M76,80l4,0 0,4 -4,0 0,-4z M84,80l4,0 0,4 -4,0 0,-4z M92,80l4,0 0,4 -4,0 0,-4z M100,80l4,0 0,4 -4,0 0,-4z M108,80l4,0 0,4 -4,0 0,-4z M124,80l4,0 0,4 -4,0 0,-4z M128,80l4,0 0,4 -4,0 0,-4z M132,80l4,0 0,4 -4,0 0,-4z M144,80l4,0 0,4 -4,0 0,-4z M148,80l4,0 0,4 -4,0 0,-4z M152,80l4,0 0,4 -4,0 0,-4z M156,80l4,0 0,4 -4,0 0,-4z M160,80l4,0 0,4 -4,0 0,-4z M168,80l4,0 0,4 -4,0 0,-4z M176,80l4,0 0,4 -4,0 0,-4z M180,80l4,0 0,4 -4,0 0,-4z M188,80l4,0 0,4 -4,0 0,-4z M196,80l4,0 0,4 -4,0 0,-4z M200,80l4,0 0,4 -4,0 0,-4z M212,80l4,0 0,4 -4,0 0,-4z M4,84l4,0 0,4 -4,0 0,-4z M8,84l4,0 0,4 -4,0 0,-4z M12,84l4,0 0,4 -4,0 0,-4z M16,84l4,0 0,4 -4,0 0,-4z M28,84l4,0 0,4 -4,0 0,-4z M32,84l4,0 0,4 -4,0 0,-4z M60,84l4,0 0,4 -4,0 0,-4z M68,84l4,0 0,4 -4,0 0,-4z M72,84l4,0 0,4 -4,0 0,-4z M80,84l4,0 0,4 -4,0 0,-4z M92,84l4,0 0,4 -4,0 0,-4z M104,84l4,0 0,4 -4,0 0,-4z M108,84l4,0 0,4 -4,0 0,-4z M112,84l4,0 0,4 -4,0 0,-4z M116,84l4,0 0,4 -4,0 0,-4z M120,84l4,0 0,4 -4,0 0,-4z M128,84l4,0 0,4 -4,0 0,-4z M136,84l4,0 0,4 -4,0 0,-4z M148,84l4,0 0,4 -4,0 0,-4z M152,84l4,0 0,4 -4,0 0,-4z M160,84l4,0 0,4 -4,0 0,-4z M164,84l4,0 0,4 -4,0 0,-4z M172,84l4,0 0,4 -4,0 0,-4z M180,84l4,0 0,4 -4,0 0,-4z M184,84l4,0 0,4 -4,0 0,-4z M196,84l4,0 0,4 -4,0 0,-4z M204,84l4,0 0,4 -4,0 0,-4z M212,84l4,0 0,4 -4,0 0,-4z M8,88l4,0 0,4 -4,0 0,-4z M12,88l4,0 0,4 -4,0 0,-4z M16,88l4,0 0,4 -4,0 0,-4z M24,88l4,0 0,4 -4,0 0,-4z M32,88l4,0 0,4 -4,0 0,-4z M48,88l4,0 0,4 -4,0 0,-4z M52,88l4,0 0,4 -4,0 0,-4z M56,88l4,0 0,4 -4,0 0,-4z M64,88l4,0 0,4 -4,0 0,-4z M76,88l4,0 0,4 -4,0 0,-4z M80,88l4,0 0,4 -4,0 0,-4z M84,88l4,0 0,4 -4,0 0,-4z M88,88l4,0 0,4 -4,0 0,-4z M92,88l4,0 0,4 -4,0 0,-4z M100,88l4,0 0,4 -4,0 0,-4z M108,88l4,0 0,4 -4,0 0,-4z M116,88l4,0 0,4 -4,0 0,-4z M124,88l4,0 0,4 -4,0 0,-4z M132,88l4,0 0,4 -4,0 0,-4z M144,88l4,0 0,4 -4,0 0,-4z M148,88l4,0 0,4 -4,0 0,-4z M160,88l4,0 0,4 -4,0 0,-4z M208,88l4,0 0,4 -4,0 0,-4z M212,88l4,0 0,4 -4,0 0,-4z M8,92l4,0 0,4 -4,0 0,-4z M12,92l4,0 0,4 -4,0 0,-4z M16,92l4,0 0,4 -4,0 0,-4z M28,92l4,0 0,4 -4,0 0,-4z M32,92l4,0 0,4 -4,0 0,-4z M36,92l4,0 0,4 -4,0 0,-4z M44,92l4,0 0,4 -4,0 0,-4z M52,92l4,0 0,4 -4,0 0,-4z M60,92l4,0 0,4 -4,0 0,-4z M64,92l4,0 0,4 -4,0 0,-4z M68,92l4,0 0,4 -4,0 0,-4z M72,92l4,0 0,4 -4,0 0,-4z M80,92l4,0 0,4 -4,0 0,-4z M84,92l4,0 0,4 -4,0 0,-4z M96,92l4,0 0,4 -4,0 0,-4z M104,92l4,0 0,4 -4,0 0,-4z M112,92l4,0 0,4 -4,0 0,-4z M116,92l4,0 0,4 -4,0 0,-4z M124,92l4,0 0,4 -4,0 0,-4z M140,92l4,0 0,4 -4,0 0,-4z M144,92l4,0 0,4 -4,0 0,-4z M152,92l4,0 0,4 -4,0 0,-4z M156,92l4,0 0,4 -4,0 0,-4z M160,92l4,0 0,4 -4,0 0,-4z M164,92l4,0 0,4 -4,0 0,-4z M176,92l4,0 0,4 -4,0 0,-4z M180,92l4,0 0,4 -4,0 0,-4z M188,92l4,0 0,4 -4,0 0,-4z M204,92l4,0 0,4 -4,0 0,-4z M208,92l4,0 0,4 -4,0 0,-4z M4,96l4,0 0,4 -4,0 0,-4z M8,96l4,0 0,4 -4,0 0,-4z M36,96l4,0 0,4 -4,0 0,-4z M60,96l4,0 0,4 -4,0 0,-4z M68,96l4,0 0,4 -4,0 0,-4z M76,96l4,0 0,4 -4,0 0,-4z M84,96l4,0 0,4 -4,0 0,-4z M92,96l4,0 0,4 -4,0 0,-4z M100,96l4,0 0,4 -4,0 0,-4z M112,96l4,0 0,4 -4,0 0,-4z M116,96l4,0 0,4 -4,0 0,-4z M128,96l4,0 0,4 -4,0 0,-4z M140,96l4,0 0,4 -4,0 0,-4z M144,96l4,0 0,4 -4,0 0,-4z M160,96l4,0 0,4 -4,0 0,-4z M164,96l4,0 0,4 -4,0 0,-4z M168,96l4,0 0,4 -4,0 0,-4z M172,96l4,0 0,4 -4,0 0,-4z M180,96l4,0 0,4 -4,0 0,-4z M188,96l4,0 0,4 -4,0 0,-4z M196,96l4,0 0,4 -4,0 0,-4z M204,96l4,0 0,4 -4,0 0,-4z M4,100l4,0 0,4 -4,0 0,-4z M16,100l4,0 0,4 -4,0 0,-4z M20,100l4,0 0,4 -4,0 0,-4z M24,100l4,0 0,4 -4,0 0,-4z M28,100l4,0 0,4 -4,0 0,-4z M32,100l4,0 0,4 -4,0 0,-4z M36,100l4,0 0,4 -4,0 0,-4z M44,100l4,0 0,4 -4,0 0,-4z M48,100l4,0 0,4 -4,0 0,-4z M52,100l4,0 0,4 -4,0 0,-4z M56,100l4,0 0,4 -4,0 0,-4z M60,100l4,0 0,4 -4,0 0,-4z M68,100l4,0 0,4 -4,0 0,-4z M72,100l4,0 0,4 -4,0 0,-4z M84,100l4,0 0,4 -4,0 0,-4z M88,100l4,0 0,4 -4,0 0,-4z M92,100l4,0 0,4 -4,0 0,-4z M96,100l4,0 0,4 -4,0 0,-4z M100,100l4,0 0,4 -4,0 0,-4z M104,100l4,0 0,4 -4,0 0,-4z M108,100l4,0 0,4 -4,0 0,-4z M112,100l4,0 0,4 -4,0 0,-4z M116,100l4,0 0,4 -4,0 0,-4z M120,100l4,0 0,4 -4,0 0,-4z M128,100l4,0 0,4 -4,0 0,-4z M132,100l4,0 0,4 -4,0 0,-4z M136,100l4,0 0,4 -4,0 0,-4z M144,100l4,0 0,4 -4,0 0,-4z M148,100l4,0 0,4 -4,0 0,-4z M156,100l4,0 0,4 -4,0 0,-4z M160,100l4,0 0,4 -4,0 0,-4z M164,100l4,0 0,4 -4,0 0,-4z M180,100l4,0 0,4 -4,0 0,-4z M184,100l4,0 0,4 -4,0 0,-4z M188,100l4,0 0,4 -4,0 0,-4z M192,100l4,0 0,4 -4,0 0,-4z M196,100l4,0 0,4 -4,0 0,-4z M208,100l4,0 0,4 -4,0 0,-4z M12,104l4,0 0,4 -4,0 0,-4z M20,104l4,0 0,4 -4,0 0,-4z M36,104l4,0 0,4 -4,0 0,-4z M48,104l4,0 0,4 -4,0 0,-4z M56,104l4,0 0,4 -4,0 0,-4z M68,104l4,0 0,4 -4,0 0,-4z M76,104l4,0 0,4 -4,0 0,-4z M80,104l4,0 0,4 -4,0 0,-4z M92,104l4,0 0,4 -4,0 0,-4z M100,104l4,0 0,4 -4,0 0,-4z M116,104l4,0 0,4 -4,0 0,-4z M124,104l4,0 0,4 -4,0 0,-4z M132,104l4,0 0,4 -4,0 0,-4z M140,104l4,0 0,4 -4,0 0,-4z M152,104l4,0 0,4 -4,0 0,-4z M160,104l4,0 0,4 -4,0 0,-4z M176,104l4,0 0,4 -4,0 0,-4z M180,104l4,0 0,4 -4,0 0,-4z M196,104l4,0 0,4 -4,0 0,-4z M208,104l4,0 0,4 -4,0 0,-4z M4,108l4,0 0,4 -4,0 0,-4z M8,108l4,0 0,4 -4,0 0,-4z M20,108l4,0 0,4 -4,0 0,-4z M28,108l4,0 0,4 -4,0 0,-4z M36,108l4,0 0,4 -4,0 0,-4z M44,108l4,0 0,4 -4,0 0,-4z M48,108l4,0 0,4 -4,0 0,-4z M68,108l4,0 0,4 -4,0 0,-4z M76,108l4,0 0,4 -4,0 0,-4z M80,108l4,0 0,4 -4,0 0,-4z M84,108l4,0 0,4 -4,0 0,-4z M88,108l4,0 0,4 -4,0 0,-4z M92,108l4,0 0,4 -4,0 0,-4z M96,108l4,0 0,4 -4,0 0,-4z M100,108l4,0 0,4 -4,0 0,-4z M108,108l4,0 0,4 -4,0 0,-4z M116,108l4,0 0,4 -4,0 0,-4z M120,108l4,0 0,4 -4,0 0,-4z M124,108l4,0 0,4 -4,0 0,-4z M136,108l4,0 0,4 -4,0 0,-4z M156,108l4,0 0,4 -4,0 0,-4z M168,108l4,0 0,4 -4,0 0,-4z M176,108l4,0 0,4 -4,0 0,-4z M180,108l4,0 0,4 -4,0 0,-4z M188,108l4,0 0,4 -4,0 0,-4z M196,108l4,0 0,4 -4,0 0,-4z M200,108l4,0 0,4 -4,0 0,-4z M208,108l4,0 0,4 -4,0 0,-4z M212,108l4,0 0,4 -4,0 0,-4z M4,112l4,0 0,4 -4,0 0,-4z M12,112l4,0 0,4 -4,0 0,-4z M20,112l4,0 0,4 -4,0 0,-4z M36,112l4,0 0,4 -4,0 0,-4z M48,112l4,0 0,4 -4,0 0,-4z M56,112l4,0 0,4 -4,0 0,-4z M60,112l4,0 0,4 -4,0 0,-4z M64,112l4,0 0,4 -4,0 0,-4z M68,112l4,0 0,4 -4,0 0,-4z M76,112l4,0 0,4 -4,0 0,-4z M80,112l4,0 0,4 -4,0 0,-4z M92,112l4,0 0,4 -4,0 0,-4z M100,112l4,0 0,4 -4,0 0,-4z M116,112l4,0 0,4 -4,0 0,-4z M124,112l4,0 0,4 -4,0 0,-4z M132,112l4,0 0,4 -4,0 0,-4z M140,112l4,0 0,4 -4,0 0,-4z M144,112l4,0 0,4 -4,0 0,-4z M148,112l4,0 0,4 -4,0 0,-4z M156,112l4,0 0,4 -4,0 0,-4z M164,112l4,0 0,4 -4,0 0,-4z M176,112l4,0 0,4 -4,0 0,-4z M180,112l4,0 0,4 -4,0 0,-4z M196,112l4,0 0,4 -4,0 0,-4z M208,112l4,0 0,4 -4,0 0,-4z M8,116l4,0 0,4 -4,0 0,-4z M16,116l4,0 0,4 -4,0 0,-4z M20,116l4,0 0,4 -4,0 0,-4z M24,116l4,0 0,4 -4,0 0,-4z M28,116l4,0 0,4 -4,0 0,-4z M32,116l4,0 0,4 -4,0 0,-4z M36,116l4,0 0,4 -4,0 0,-4z M48,116l4,0 0,4 -4,0 0,-4z M72,116l4,0 0,4 -4,0 0,-4z M88,116l4,0 0,4 -4,0 0,-4z M96,116l4,0 0,4 -4,0 0,-4z M100,116l4,0 0,4 -4,0 0,-4z M104,116l4,0 0,4 -4,0 0,-4z M108,116l4,0 0,4 -4,0 0,-4z M112,116l4,0 0,4 -4,0 0,-4z M116,116l4,0 0,4 -4,0 0,-4z M120,116l4,0 0,4 -4,0 0,-4z M128,116l4,0 0,4 -4,0 0,-4z M132,116l4,0 0,4 -4,0 0,-4z M136,116l4,0 0,4 -4,0 0,-4z M140,116l4,0 0,4 -4,0 0,-4z M144,116l4,0 0,4 -4,0 0,-4z M148,116l4,0 0,4 -4,0 0,-4z M152,116l4,0 0,4 -4,0 0,-4z M160,116l4,0 0,4 -4,0 0,-4z M168,116l4,0 0,4 -4,0 0,-4z M172,116l4,0 0,4 -4,0 0,-4z M180,116l4,0 0,4 -4,0 0,-4z M184,116l4,0 0,4 -4,0 0,-4z M188,116l4,0 0,4 -4,0 0,-4z M192,116l4,0 0,4 -4,0 0,-4z M196,116l4,0 0,4 -4,0 0,-4z M200,116l4,0 0,4 -4,0 0,-4z M208,116l4,0 0,4 -4,0 0,-4z M212,116l4,0 0,4 -4,0 0,-4z M8,120l4,0 0,4 -4,0 0,-4z M12,120l4,0 0,4 -4,0 0,-4z M20,120l4,0 0,4 -4,0 0,-4z M24,120l4,0 0,4 -4,0 0,-4z M48,120l4,0 0,4 -4,0 0,-4z M56,120l4,0 0,4 -4,0 0,-4z M60,120l4,0 0,4 -4,0 0,-4z M76,120l4,0 0,4 -4,0 0,-4z M88,120l4,0 0,4 -4,0 0,-4z M92,120l4,0 0,4 -4,0 0,-4z M104,120l4,0 0,4 -4,0 0,-4z M108,120l4,0 0,4 -4,0 0,-4z M112,120l4,0 0,4 -4,0 0,-4z M144,120l4,0 0,4 -4,0 0,-4z M156,120l4,0 0,4 -4,0 0,-4z M168,120l4,0 0,4 -4,0 0,-4z M188,120l4,0 0,4 -4,0 0,-4z M200,120l4,0 0,4 -4,0 0,-4z M208,120l4,0 0,4 -4,0 0,-4z M212,120l4,0 0,4 -4,0 0,-4z M4,124l4,0 0,4 -4,0 0,-4z M8,124l4,0 0,4 -4,0 0,-4z M12,124l4,0 0,4 -4,0 0,-4z M16,124l4,0 0,4 -4,0 0,-4z M24,124l4,0 0,4 -4,0 0,-4z M28,124l4,0 0,4 -4,0 0,-4z M36,124l4,0 0,4 -4,0 0,-4z M44,124l4,0 0,4 -4,0 0,-4z M48,124l4,0 0,4 -4,0 0,-4z M60,124l4,0 0,4 -4,0 0,-4z M64,124l4,0 0,4 -4,0 0,-4z M72,124l4,0 0,4 -4,0 0,-4z M84,124l4,0 0,4 -4,0 0,-4z M92,124l4,0 0,4 -4,0 0,-4z M96,124l4,0 0,4 -4,0 0,-4z M100,124l4,0 0,4 -4,0 0,-4z M108,124l4,0 0,4 -4,0 0,-4z M132,124l4,0 0,4 -4,0 0,-4z M144,124l4,0 0,4 -4,0 0,-4z M160,124l4,0 0,4 -4,0 0,-4z M164,124l4,0 0,4 -4,0 0,-4z M172,124l4,0 0,4 -4,0 0,-4z M176,124l4,0 0,4 -4,0 0,-4z M188,124l4,0 0,4 -4,0 0,-4z M192,124l4,0 0,4 -4,0 0,-4z M196,124l4,0 0,4 -4,0 0,-4z M204,124l4,0 0,4 -4,0 0,-4z M208,124l4,0 0,4 -4,0 0,-4z M212,124l4,0 0,4 -4,0 0,-4z M20,128l4,0 0,4 -4,0 0,-4z M24,128l4,0 0,4 -4,0 0,-4z M32,128l4,0 0,4 -4,0 0,-4z M60,128l4,0 0,4 -4,0 0,-4z M84,128l4,0 0,4 -4,0 0,-4z M88,128l4,0 0,4 -4,0 0,-4z M112,128l4,0 0,4 -4,0 0,-4z M136,128l4,0 0,4 -4,0 0,-4z M144,128l4,0 0,4 -4,0 0,-4z M148,128l4,0 0,4 -4,0 0,-4z M168,128l4,0 0,4 -4,0 0,-4z M172,128l4,0 0,4 -4,0 0,-4z M176,128l4,0 0,4 -4,0 0,-4z M180,128l4,0 0,4 -4,0 0,-4z M200,128l4,0 0,4 -4,0 0,-4z M212,128l4,0 0,4 -4,0 0,-4z M4,132l4,0 0,4 -4,0 0,-4z M8,132l4,0 0,4 -4,0 0,-4z M12,132l4,0 0,4 -4,0 0,-4z M20,132l4,0 0,4 -4,0 0,-4z M24,132l4,0 0,4 -4,0 0,-4z M28,132l4,0 0,4 -4,0 0,-4z M52,132l4,0 0,4 -4,0 0,-4z M56,132l4,0 0,4 -4,0 0,-4z M60,132l4,0 0,4 -4,0 0,-4z M76,132l4,0 0,4 -4,0 0,-4z M80,132l4,0 0,4 -4,0 0,-4z M84,132l4,0 0,4 -4,0 0,-4z M92,132l4,0 0,4 -4,0 0,-4z M96,132l4,0 0,4 -4,0 0,-4z M104,132l4,0 0,4 -4,0 0,-4z M108,132l4,0 0,4 -4,0 0,-4z M116,132l4,0 0,4 -4,0 0,-4z M120,132l4,0 0,4 -4,0 0,-4z M128,132l4,0 0,4 -4,0 0,-4z M136,132l4,0 0,4 -4,0 0,-4z M140,132l4,0 0,4 -4,0 0,-4z M148,132l4,0 0,4 -4,0 0,-4z M152,132l4,0 0,4 -4,0 0,-4z M156,132l4,0 0,4 -4,0 0,-4z M160,132l4,0 0,4 -4,0 0,-4z M164,132l4,0 0,4 -4,0 0,-4z M168,132l4,0 0,4 -4,0 0,-4z M184,132l4,0 0,4 -4,0 0,-4z M188,132l4,0 0,4 -4,0 0,-4z M192,132l4,0 0,4 -4,0 0,-4z M200,132l4,0 0,4 -4,0 0,-4z M204,132l4,0 0,4 -4,0 0,-4z M4,136l4,0 0,4 -4,0 0,-4z M8,136l4,0 0,4 -4,0 0,-4z M12,136l4,0 0,4 -4,0 0,-4z M16,136l4,0 0,4 -4,0 0,-4z M24,136l4,0 0,4 -4,0 0,-4z M36,136l4,0 0,4 -4,0 0,-4z M40,136l4,0 0,4 -4,0 0,-4z M44,136l4,0 0,4 -4,0 0,-4z M52,136l4,0 0,4 -4,0 0,-4z M72,136l4,0 0,4 -4,0 0,-4z M80,136l4,0 0,4 -4,0 0,-4z M84,136l4,0 0,4 -4,0 0,-4z M88,136l4,0 0,4 -4,0 0,-4z M96,136l4,0 0,4 -4,0 0,-4z M100,136l4,0 0,4 -4,0 0,-4z M144,136l4,0 0,4 -4,0 0,-4z M148,136l4,0 0,4 -4,0 0,-4z M152,136l4,0 0,4 -4,0 0,-4z M160,136l4,0 0,4 -4,0 0,-4z M168,136l4,0 0,4 -4,0 0,-4z M176,136l4,0 0,4 -4,0 0,-4z M184,136l4,0 0,4 -4,0 0,-4z M208,136l4,0 0,4 -4,0 0,-4z M212,136l4,0 0,4 -4,0 0,-4z M4,140l4,0 0,4 -4,0 0,-4z M8,140l4,0 0,4 -4,0 0,-4z M12,140l4,0 0,4 -4,0 0,-4z M20,140l4,0 0,4 -4,0 0,-4z M24,140l4,0 0,4 -4,0 0,-4z M28,140l4,0 0,4 -4,0 0,-4z M32,140l4,0 0,4 -4,0 0,-4z M40,140l4,0 0,4 -4,0 0,-4z M44,140l4,0 0,4 -4,0 0,-4z M60,140l4,0 0,4 -4,0 0,-4z M64,140l4,0 0,4 -4,0 0,-4z M72,140l4,0 0,4 -4,0 0,-4z M76,140l4,0 0,4 -4,0 0,-4z M96,140l4,0 0,4 -4,0 0,-4z M100,140l4,0 0,4 -4,0 0,-4z M108,140l4,0 0,4 -4,0 0,-4z M112,140l4,0 0,4 -4,0 0,-4z M124,140l4,0 0,4 -4,0 0,-4z M128,140l4,0 0,4 -4,0 0,-4z M132,140l4,0 0,4 -4,0 0,-4z M140,140l4,0 0,4 -4,0 0,-4z M144,140l4,0 0,4 -4,0 0,-4z M160,140l4,0 0,4 -4,0 0,-4z M180,140l4,0 0,4 -4,0 0,-4z M184,140l4,0 0,4 -4,0 0,-4z M200,140l4,0 0,4 -4,0 0,-4z M204,140l4,0 0,4 -4,0 0,-4z M208,140l4,0 0,4 -4,0 0,-4z M8,144l4,0 0,4 -4,0 0,-4z M12,144l4,0 0,4 -4,0 0,-4z M24,144l4,0 0,4 -4,0 0,-4z M32,144l4,0 0,4 -4,0 0,-4z M40,144l4,0 0,4 -4,0 0,-4z M44,144l4,0 0,4 -4,0 0,-4z M52,144l4,0 0,4 -4,0 0,-4z M56,144l4,0 0,4 -4,0 0,-4z M60,144l4,0 0,4 -4,0 0,-4z M64,144l4,0 0,4 -4,0 0,-4z M80,144l4,0 0,4 -4,0 0,-4z M84,144l4,0 0,4 -4,0 0,-4z M88,144l4,0 0,4 -4,0 0,-4z M92,144l4,0 0,4 -4,0 0,-4z M100,144l4,0 0,4 -4,0 0,-4z M104,144l4,0 0,4 -4,0 0,-4z M108,144l4,0 0,4 -4,0 0,-4z M112,144l4,0 0,4 -4,0 0,-4z M116,144l4,0 0,4 -4,0 0,-4z M120,144l4,0 0,4 -4,0 0,-4z M124,144l4,0 0,4 -4,0 0,-4z M128,144l4,0 0,4 -4,0 0,-4z M140,144l4,0 0,4 -4,0 0,-4z M148,144l4,0 0,4 -4,0 0,-4z M156,144l4,0 0,4 -4,0 0,-4z M160,144l4,0 0,4 -4,0 0,-4z M164,144l4,0 0,4 -4,0 0,-4z M172,144l4,0 0,4 -4,0 0,-4z M184,144l4,0 0,4 -4,0 0,-4z M188,144l4,0 0,4 -4,0 0,-4z M192,144l4,0 0,4 -4,0 0,-4z M196,144l4,0 0,4 -4,0 0,-4z M200,144l4,0 0,4 -4,0 0,-4z M204,144l4,0 0,4 -4,0 0,-4z M4,148l4,0 0,4 -4,0 0,-4z M8,148l4,0 0,4 -4,0 0,-4z M12,148l4,0 0,4 -4,0 0,-4z M16,148l4,0 0,4 -4,0 0,-4z M24,148l4,0 0,4 -4,0 0,-4z M28,148l4,0 0,4 -4,0 0,-4z M36,148l4,0 0,4 -4,0 0,-4z M48,148l4,0 0,4 -4,0 0,-4z M52,148l4,0 0,4 -4,0 0,-4z M56,148l4,0 0,4 -4,0 0,-4z M60,148l4,0 0,4 -4,0 0,-4z M64,148l4,0 0,4 -4,0 0,-4z M68,148l4,0 0,4 -4,0 0,-4z M72,148l4,0 0,4 -4,0 0,-4z M76,148l4,0 0,4 -4,0 0,-4z M100,148l4,0 0,4 -4,0 0,-4z M104,148l4,0 0,4 -4,0 0,-4z M108,148l4,0 0,4 -4,0 0,-4z M124,148l4,0 0,4 -4,0 0,-4z M132,148l4,0 0,4 -4,0 0,-4z M144,148l4,0 0,4 -4,0 0,-4z M148,148l4,0 0,4 -4,0 0,-4z M152,148l4,0 0,4 -4,0 0,-4z M156,148l4,0 0,4 -4,0 0,-4z M160,148l4,0 0,4 -4,0 0,-4z M164,148l4,0 0,4 -4,0 0,-4z M172,148l4,0 0,4 -4,0 0,-4z M188,148l4,0 0,4 -4,0 0,-4z M192,148l4,0 0,4 -4,0 0,-4z M208,148l4,0 0,4 -4,0 0,-4z M212,148l4,0 0,4 -4,0 0,-4z M4,152l4,0 0,4 -4,0 0,-4z M8,152l4,0 0,4 -4,0 0,-4z M12,152l4,0 0,4 -4,0 0,-4z M20,152l4,0 0,4 -4,0 0,-4z M32,152l4,0 0,4 -4,0 0,-4z M36,152l4,0 0,4 -4,0 0,-4z M40,152l4,0 0,4 -4,0 0,-4z M44,152l4,0 0,4 -4,0 0,-4z M52,152l4,0 0,4 -4,0 0,-4z M56,152l4,0 0,4 -4,0 0,-4z M64,152l4,0 0,4 -4,0 0,-4z M76,152l4,0 0,4 -4,0 0,-4z M88,152l4,0 0,4 -4,0 0,-4z M100,152l4,0 0,4 -4,0 0,-4z M108,152l4,0 0,4 -4,0 0,-4z M112,152l4,0 0,4 -4,0 0,-4z M116,152l4,0 0,4 -4,0 0,-4z M120,152l4,0 0,4 -4,0 0,-4z M124,152l4,0 0,4 -4,0 0,-4z M128,152l4,0 0,4 -4,0 0,-4z M132,152l4,0 0,4 -4,0 0,-4z M140,152l4,0 0,4 -4,0 0,-4z M144,152l4,0 0,4 -4,0 0,-4z M148,152l4,0 0,4 -4,0 0,-4z M152,152l4,0 0,4 -4,0 0,-4z M164,152l4,0 0,4 -4,0 0,-4z M176,152l4,0 0,4 -4,0 0,-4z M180,152l4,0 0,4 -4,0 0,-4z M208,152l4,0 0,4 -4,0 0,-4z M12,156l4,0 0,4 -4,0 0,-4z M24,156l4,0 0,4 -4,0 0,-4z M28,156l4,0 0,4 -4,0 0,-4z M40,156l4,0 0,4 -4,0 0,-4z M44,156l4,0 0,4 -4,0 0,-4z M56,156l4,0 0,4 -4,0 0,-4z M68,156l4,0 0,4 -4,0 0,-4z M84,156l4,0 0,4 -4,0 0,-4z M92,156l4,0 0,4 -4,0 0,-4z M96,156l4,0 0,4 -4,0 0,-4z M100,156l4,0 0,4 -4,0 0,-4z M104,156l4,0 0,4 -4,0 0,-4z M120,156l4,0 0,4 -4,0 0,-4z M128,156l4,0 0,4 -4,0 0,-4z M144,156l4,0 0,4 -4,0 0,-4z M148,156l4,0 0,4 -4,0 0,-4z M152,156l4,0 0,4 -4,0 0,-4z M156,156l4,0 0,4 -4,0 0,-4z M160,156l4,0 0,4 -4,0 0,-4z M164,156l4,0 0,4 -4,0 0,-4z M176,156l4,0 0,4 -4,0 0,-4z M180,156l4,0 0,4 -4,0 0,-4z M184,156l4,0 0,4 -4,0 0,-4z M188,156l4,0 0,4 -4,0 0,-4z M192,156l4,0 0,4 -4,0 0,-4z M196,156l4,0 0,4 -4,0 0,-4z M200,156l4,0 0,4 -4,0 0,-4z M204,156l4,0 0,4 -4,0 0,-4z M212,156l4,0 0,4 -4,0 0,-4z M8,160l4,0 0,4 -4,0 0,-4z M16,160l4,0 0,4 -4,0 0,-4z M20,160l4,0 0,4 -4,0 0,-4z M32,160l4,0 0,4 -4,0 0,-4z M36,160l4,0 0,4 -4,0 0,-4z M48,160l4,0 0,4 -4,0 0,-4z M56,160l4,0 0,4 -4,0 0,-4z M60,160l4,0 0,4 -4,0 0,-4z M84,160l4,0 0,4 -4,0 0,-4z M92,160l4,0 0,4 -4,0 0,-4z M100,160l4,0 0,4 -4,0 0,-4z M108,160l4,0 0,4 -4,0 0,-4z M112,160l4,0 0,4 -4,0 0,-4z M116,160l4,0 0,4 -4,0 0,-4z M120,160l4,0 0,4 -4,0 0,-4z M124,160l4,0 0,4 -4,0 0,-4z M132,160l4,0 0,4 -4,0 0,-4z M140,160l4,0 0,4 -4,0 0,-4z M144,160l4,0 0,4 -4,0 0,-4z M148,160l4,0 0,4 -4,0 0,-4z M152,160l4,0 0,4 -4,0 0,-4z M156,160l4,0 0,4 -4,0 0,-4z M160,160l4,0 0,4 -4,0 0,-4z M164,160l4,0 0,4 -4,0 0,-4z M180,160l4,0 0,4 -4,0 0,-4z M184,160l4,0 0,4 -4,0 0,-4z M188,160l4,0 0,4 -4,0 0,-4z M212,160l4,0 0,4 -4,0 0,-4z M12,164l4,0 0,4 -4,0 0,-4z M20,164l4,0 0,4 -4,0 0,-4z M24,164l4,0 0,4 -4,0 0,-4z M28,164l4,0 0,4 -4,0 0,-4z M40,164l4,0 0,4 -4,0 0,-4z M52,164l4,0 0,4 -4,0 0,-4z M76,164l4,0 0,4 -4,0 0,-4z M84,164l4,0 0,4 -4,0 0,-4z M92,164l4,0 0,4 -4,0 0,-4z M112,164l4,0 0,4 -4,0 0,-4z M120,164l4,0 0,4 -4,0 0,-4z M124,164l4,0 0,4 -4,0 0,-4z M132,164l4,0 0,4 -4,0 0,-4z M140,164l4,0 0,4 -4,0 0,-4z M148,164l4,0 0,4 -4,0 0,-4z M152,164l4,0 0,4 -4,0 0,-4z M156,164l4,0 0,4 -4,0 0,-4z M172,164l4,0 0,4 -4,0 0,-4z M176,164l4,0 0,4 -4,0 0,-4z M184,164l4,0 0,4 -4,0 0,-4z M188,164l4,0 0,4 -4,0 0,-4z M200,164l4,0 0,4 -4,0 0,-4z M208,164l4,0 0,4 -4,0 0,-4z M4,168l4,0 0,4 -4,0 0,-4z M8,168l4,0 0,4 -4,0 0,-4z M16,168l4,0 0,4 -4,0 0,-4z M32,168l4,0 0,4 -4,0 0,-4z M36,168l4,0 0,4 -4,0 0,-4z M40,168l4,0 0,4 -4,0 0,-4z M44,168l4,0 0,4 -4,0 0,-4z M52,168l4,0 0,4 -4,0 0,-4z M56,168l4,0 0,4 -4,0 0,-4z M64,168l4,0 0,4 -4,0 0,-4z M68,168l4,0 0,4 -4,0 0,-4z M84,168l4,0 0,4 -4,0 0,-4z M92,168l4,0 0,4 -4,0 0,-4z M104,168l4,0 0,4 -4,0 0,-4z M112,168l4,0 0,4 -4,0 0,-4z M116,168l4,0 0,4 -4,0 0,-4z M120,168l4,0 0,4 -4,0 0,-4z M124,168l4,0 0,4 -4,0 0,-4z M148,168l4,0 0,4 -4,0 0,-4z M156,168l4,0 0,4 -4,0 0,-4z M164,168l4,0 0,4 -4,0 0,-4z M168,168l4,0 0,4 -4,0 0,-4z M176,168l4,0 0,4 -4,0 0,-4z M180,168l4,0 0,4 -4,0 0,-4z M188,168l4,0 0,4 -4,0 0,-4z M192,168l4,0 0,4 -4,0 0,-4z M204,168l4,0 0,4 -4,0 0,-4z M212,168l4,0 0,4 -4,0 0,-4z M4,172l4,0 0,4 -4,0 0,-4z M8,172l4,0 0,4 -4,0 0,-4z M16,172l4,0 0,4 -4,0 0,-4z M20,172l4,0 0,4 -4,0 0,-4z M24,172l4,0 0,4 -4,0 0,-4z M28,172l4,0 0,4 -4,0 0,-4z M32,172l4,0 0,4 -4,0 0,-4z M36,172l4,0 0,4 -4,0 0,-4z M48,172l4,0 0,4 -4,0 0,-4z M56,172l4,0 0,4 -4,0 0,-4z M64,172l4,0 0,4 -4,0 0,-4z M72,172l4,0 0,4 -4,0 0,-4z M76,172l4,0 0,4 -4,0 0,-4z M80,172l4,0 0,4 -4,0 0,-4z M100,172l4,0 0,4 -4,0 0,-4z M108,172l4,0 0,4 -4,0 0,-4z M116,172l4,0 0,4 -4,0 0,-4z M124,172l4,0 0,4 -4,0 0,-4z M132,172l4,0 0,4 -4,0 0,-4z M140,172l4,0 0,4 -4,0 0,-4z M160,172l4,0 0,4 -4,0 0,-4z M168,172l4,0 0,4 -4,0 0,-4z M176,172l4,0 0,4 -4,0 0,-4z M184,172l4,0 0,4 -4,0 0,-4z M188,172l4,0 0,4 -4,0 0,-4z M192,172l4,0 0,4 -4,0 0,-4z M196,172l4,0 0,4 -4,0 0,-4z M200,172l4,0 0,4 -4,0 0,-4z M208,172l4,0 0,4 -4,0 0,-4z M212,172l4,0 0,4 -4,0 0,-4z M8,176l4,0 0,4 -4,0 0,-4z M12,176l4,0 0,4 -4,0 0,-4z M52,176l4,0 0,4 -4,0 0,-4z M56,176l4,0 0,4 -4,0 0,-4z M68,176l4,0 0,4 -4,0 0,-4z M72,176l4,0 0,4 -4,0 0,-4z M76,176l4,0 0,4 -4,0 0,-4z M92,176l4,0 0,4 -4,0 0,-4z M100,176l4,0 0,4 -4,0 0,-4z M104,176l4,0 0,4 -4,0 0,-4z M128,176l4,0 0,4 -4,0 0,-4z M132,176l4,0 0,4 -4,0 0,-4z M140,176l4,0 0,4 -4,0 0,-4z M144,176l4,0 0,4 -4,0 0,-4z M148,176l4,0 0,4 -4,0 0,-4z M160,176l4,0 0,4 -4,0 0,-4z M164,176l4,0 0,4 -4,0 0,-4z M168,176l4,0 0,4 -4,0 0,-4z M176,176l4,0 0,4 -4,0 0,-4z M180,176l4,0 0,4 -4,0 0,-4z M192,176l4,0 0,4 -4,0 0,-4z M196,176l4,0 0,4 -4,0 0,-4z M200,176l4,0 0,4 -4,0 0,-4z M212,176l4,0 0,4 -4,0 0,-4z M16,180l4,0 0,4 -4,0 0,-4z M28,180l4,0 0,4 -4,0 0,-4z M32,180l4,0 0,4 -4,0 0,-4z M44,180l4,0 0,4 -4,0 0,-4z M48,180l4,0 0,4 -4,0 0,-4z M52,180l4,0 0,4 -4,0 0,-4z M64,180l4,0 0,4 -4,0 0,-4z M72,180l4,0 0,4 -4,0 0,-4z M76,180l4,0 0,4 -4,0 0,-4z M80,180l4,0 0,4 -4,0 0,-4z M96,180l4,0 0,4 -4,0 0,-4z M100,180l4,0 0,4 -4,0 0,-4z M104,180l4,0 0,4 -4,0 0,-4z M108,180l4,0 0,4 -4,0 0,-4z M112,180l4,0 0,4 -4,0 0,-4z M116,180l4,0 0,4 -4,0 0,-4z M128,180l4,0 0,4 -4,0 0,-4z M140,180l4,0 0,4 -4,0 0,-4z M148,180l4,0 0,4 -4,0 0,-4z M156,180l4,0 0,4 -4,0 0,-4z M160,180l4,0 0,4 -4,0 0,-4z M164,180l4,0 0,4 -4,0 0,-4z M168,180l4,0 0,4 -4,0 0,-4z M180,180l4,0 0,4 -4,0 0,-4z M184,180l4,0 0,4 -4,0 0,-4z M188,180l4,0 0,4 -4,0 0,-4z M192,180l4,0 0,4 -4,0 0,-4z M196,180l4,0 0,4 -4,0 0,-4z M204,180l4,0 0,4 -4,0 0,-4z M208,180l4,0 0,4 -4,0 0,-4z M212,180l4,0 0,4 -4,0 0,-4z M36,184l4,0 0,4 -4,0 0,-4z M44,184l4,0 0,4 -4,0 0,-4z M52,184l4,0 0,4 -4,0 0,-4z M56,184l4,0 0,4 -4,0 0,-4z M64,184l4,0 0,4 -4,0 0,-4z M72,184l4,0 0,4 -4,0 0,-4z M80,184l4,0 0,4 -4,0 0,-4z M96,184l4,0 0,4 -4,0 0,-4z M100,184l4,0 0,4 -4,0 0,-4z M116,184l4,0 0,4 -4,0 0,-4z M120,184l4,0 0,4 -4,0 0,-4z M124,184l4,0 0,4 -4,0 0,-4z M128,184l4,0 0,4 -4,0 0,-4z M132,184l4,0 0,4 -4,0 0,-4z M136,184l4,0 0,4 -4,0 0,-4z M152,184l4,0 0,4 -4,0 0,-4z M176,184l4,0 0,4 -4,0 0,-4z M180,184l4,0 0,4 -4,0 0,-4z M196,184l4,0 0,4 -4,0 0,-4z M212,184l4,0 0,4 -4,0 0,-4z M4,188l4,0 0,4 -4,0 0,-4z M8,188l4,0 0,4 -4,0 0,-4z M12,188l4,0 0,4 -4,0 0,-4z M16,188l4,0 0,4 -4,0 0,-4z M20,188l4,0 0,4 -4,0 0,-4z M24,188l4,0 0,4 -4,0 0,-4z M28,188l4,0 0,4 -4,0 0,-4z M36,188l4,0 0,4 -4,0 0,-4z M40,188l4,0 0,4 -4,0 0,-4z M44,188l4,0 0,4 -4,0 0,-4z M48,188l4,0 0,4 -4,0 0,-4z M56,188l4,0 0,4 -4,0 0,-4z M64,188l4,0 0,4 -4,0 0,-4z M68,188l4,0 0,4 -4,0 0,-4z M84,188l4,0 0,4 -4,0 0,-4z M88,188l4,0 0,4 -4,0 0,-4z M92,188l4,0 0,4 -4,0 0,-4z M100,188l4,0 0,4 -4,0 0,-4z M108,188l4,0 0,4 -4,0 0,-4z M116,188l4,0 0,4 -4,0 0,-4z M124,188l4,0 0,4 -4,0 0,-4z M140,188l4,0 0,4 -4,0 0,-4z M152,188l4,0 0,4 -4,0 0,-4z M168,188l4,0 0,4 -4,0 0,-4z M176,188l4,0 0,4 -4,0 0,-4z M180,188l4,0 0,4 -4,0 0,-4z M188,188l4,0 0,4 -4,0 0,-4z M196,188l4,0 0,4 -4,0 0,-4z M200,188l4,0 0,4 -4,0 0,-4z M204,188l4,0 0,4 -4,0 0,-4z M208,188l4,0 0,4 -4,0 0,-4z M4,192l4,0 0,4 -4,0 0,-4z M28,192l4,0 0,4 -4,0 0,-4z M36,192l4,0 0,4 -4,0 0,-4z M44,192l4,0 0,4 -4,0 0,-4z M52,192l4,0 0,4 -4,0 0,-4z M60,192l4,0 0,4 -4,0 0,-4z M64,192l4,0 0,4 -4,0 0,-4z M88,192l4,0 0,4 -4,0 0,-4z M92,192l4,0 0,4 -4,0 0,-4z M96,192l4,0 0,4 -4,0 0,-4z M100,192l4,0 0,4 -4,0 0,-4z M116,192l4,0 0,4 -4,0 0,-4z M120,192l4,0 0,4 -4,0 0,-4z M124,192l4,0 0,4 -4,0 0,-4z M128,192l4,0 0,4 -4,0 0,-4z M136,192l4,0 0,4 -4,0 0,-4z M148,192l4,0 0,4 -4,0 0,-4z M160,192l4,0 0,4 -4,0 0,-4z M164,192l4,0 0,4 -4,0 0,-4z M168,192l4,0 0,4 -4,0 0,-4z M172,192l4,0 0,4 -4,0 0,-4z M176,192l4,0 0,4 -4,0 0,-4z M180,192l4,0 0,4 -4,0 0,-4z M196,192l4,0 0,4 -4,0 0,-4z M200,192l4,0 0,4 -4,0 0,-4z M204,192l4,0 0,4 -4,0 0,-4z M4,196l4,0 0,4 -4,0 0,-4z M12,196l4,0 0,4 -4,0 0,-4z M16,196l4,0 0,4 -4,0 0,-4z M20,196l4,0 0,4 -4,0 0,-4z M28,196l4,0 0,4 -4,0 0,-4z M44,196l4,0 0,4 -4,0 0,-4z M60,196l4,0 0,4 -4,0 0,-4z M72,196l4,0 0,4 -4,0 0,-4z M76,196l4,0 0,4 -4,0 0,-4z M100,196l4,0 0,4 -4,0 0,-4z M104,196l4,0 0,4 -4,0 0,-4z M108,196l4,0 0,4 -4,0 0,-4z M112,196l4,0 0,4 -4,0 0,-4z M116,196l4,0 0,4 -4,0 0,-4z M128,196l4,0 0,4 -4,0 0,-4z M132,196l4,0 0,4 -4,0 0,-4z M136,196l4,0 0,4 -4,0 0,-4z M144,196l4,0 0,4 -4,0 0,-4z M148,196l4,0 0,4 -4,0 0,-4z M156,196l4,0 0,4 -4,0 0,-4z M160,196l4,0 0,4 -4,0 0,-4z M164,196l4,0 0,4 -4,0 0,-4z M168,196l4,0 0,4 -4,0 0,-4z M180,196l4,0 0,4 -4,0 0,-4z M184,196l4,0 0,4 -4,0 0,-4z M188,196l4,0 0,4 -4,0 0,-4z M192,196l4,0 0,4 -4,0 0,-4z M196,196l4,0 0,4 -4,0 0,-4z M4,200l4,0 0,4 -4,0 0,-4z M12,200l4,0 0,4 -4,0 0,-4z M16,200l4,0 0,4 -4,0 0,-4z M20,200l4,0 0,4 -4,0 0,-4z M28,200l4,0 0,4 -4,0 0,-4z M36,200l4,0 0,4 -4,0 0,-4z M40,200l4,0 0,4 -4,0 0,-4z M48,200l4,0 0,4 -4,0 0,-4z M52,200l4,0 0,4 -4,0 0,-4z M56,200l4,0 0,4 -4,0 0,-4z M60,200l4,0 0,4 -4,0 0,-4z M64,200l4,0 0,4 -4,0 0,-4z M68,200l4,0 0,4 -4,0 0,-4z M80,200l4,0 0,4 -4,0 0,-4z M96,200l4,0 0,4 -4,0 0,-4z M100,200l4,0 0,4 -4,0 0,-4z M104,200l4,0 0,4 -4,0 0,-4z M108,200l4,0 0,4 -4,0 0,-4z M116,200l4,0 0,4 -4,0 0,-4z M124,200l4,0 0,4 -4,0 0,-4z M132,200l4,0 0,4 -4,0 0,-4z M140,200l4,0 0,4 -4,0 0,-4z M164,200l4,0 0,4 -4,0 0,-4z M176,200l4,0 0,4 -4,0 0,-4z M184,200l4,0 0,4 -4,0 0,-4z M188,200l4,0 0,4 -4,0 0,-4z M196,200l4,0 0,4 -4,0 0,-4z M200,200l4,0 0,4 -4,0 0,-4z M208,200l4,0 0,4 -4,0 0,-4z M212,200l4,0 0,4 -4,0 0,-4z M4,204l4,0 0,4 -4,0 0,-4z M12,204l4,0 0,4 -4,0 0,-4z M16,204l4,0 0,4 -4,0 0,-4z M20,204l4,0 0,4 -4,0 0,-4z M28,204l4,0 0,4 -4,0 0,-4z M40,204l4,0 0,4 -4,0 0,-4z M52,204l4,0 0,4 -4,0 0,-4z M72,204l4,0 0,4 -4,0 0,-4z M88,204l4,0 0,4 -4,0 0,-4z M96,204l4,0 0,4 -4,0 0,-4z M100,204l4,0 0,4 -4,0 0,-4z M104,204l4,0 0,4 -4,0 0,-4z M108,204l4,0 0,4 -4,0 0,-4z M116,204l4,0 0,4 -4,0 0,-4z M124,204l4,0 0,4 -4,0 0,-4z M136,204l4,0 0,4 -4,0 0,-4z M144,204l4,0 0,4 -4,0 0,-4z M156,204l4,0 0,4 -4,0 0,-4z M168,204l4,0 0,4 -4,0 0,-4z M176,204l4,0 0,4 -4,0 0,-4z M196,204l4,0 0,4 -4,0 0,-4z M200,204l4,0 0,4 -4,0 0,-4z M4,208l4,0 0,4 -4,0 0,-4z M28,208l4,0 0,4 -4,0 0,-4z M36,208l4,0 0,4 -4,0 0,-4z M40,208l4,0 0,4 -4,0 0,-4z M52,208l4,0 0,4 -4,0 0,-4z M56,208l4,0 0,4 -4,0 0,-4z M64,208l4,0 0,4 -4,0 0,-4z M72,208l4,0 0,4 -4,0 0,-4z M76,208l4,0 0,4 -4,0 0,-4z M84,208l4,0 0,4 -4,0 0,-4z M100,208l4,0 0,4 -4,0 0,-4z M108,208l4,0 0,4 -4,0 0,-4z M112,208l4,0 0,4 -4,0 0,-4z M116,208l4,0 0,4 -4,0 0,-4z M128,208l4,0 0,4 -4,0 0,-4z M132,208l4,0 0,4 -4,0 0,-4z M136,208l4,0 0,4 -4,0 0,-4z M144,208l4,0 0,4 -4,0 0,-4z M148,208l4,0 0,4 -4,0 0,-4z M160,208l4,0 0,4 -4,0 0,-4z M164,208l4,0 0,4 -4,0 0,-4z M172,208l4,0 0,4 -4,0 0,-4z M180,208l4,0 0,4 -4,0 0,-4z M196,208l4,0 0,4 -4,0 0,-4z M208,208l4,0 0,4 -4,0 0,-4z M4,212l4,0 0,4 -4,0 0,-4z M8,212l4,0 0,4 -4,0 0,-4z M12,212l4,0 0,4 -4,0 0,-4z M16,212l4,0 0,4 -4,0 0,-4z M20,212l4,0 0,4 -4,0 0,-4z M24,212l4,0 0,4 -4,0 0,-4z M28,212l4,0 0,4 -4,0 0,-4z M40,212l4,0 0,4 -4,0 0,-4z M52,212l4,0 0,4 -4,0 0,-4z M56,212l4,0 0,4 -4,0 0,-4z M60,212l4,0 0,4 -4,0 0,-4z M72,212l4,0 0,4 -4,0 0,-4z M76,212l4,0 0,4 -4,0 0,-4z M84,212l4,0 0,4 -4,0 0,-4z M116,212l4,0 0,4 -4,0 0,-4z M132,212l4,0 0,4 -4,0 0,-4z M136,212l4,0 0,4 -4,0 0,-4z M140,212l4,0 0,4 -4,0 0,-4z M148,212l4,0 0,4 -4,0 0,-4z M156,212l4,0 0,4 -4,0 0,-4z M160,212l4,0 0,4 -4,0 0,-4z M172,212l4,0 0,4 -4,0 0,-4z M188,212l4,0 0,4 -4,0 0,-4z M196,212l4,0 0,4 -4,0 0,-4z M208,212l4,0 0,4 -4,0 0,-4z " stroke="transparent" fill="#0c0c0d"/></svg>